<?xml version="1.0" encoding="utf-8"?>
<!-- Generator: Adobe Illustrator 25.0.1, SVG Export Plug-In . SVG Version: 6.00 Build 0)  -->
<svg version="1.1" id="Layer_1" xmlns="http://www.w3.org/2000/svg" xmlns:xlink="http://www.w3.org/1999/xlink" x="0px" y="0px"
	 viewBox="0 0 220.4 34.5" style="enable-background:new 0 0 220.4 34.5;" xml:space="preserve">
<style type="text/css">
	.st0{fill:#ED1846;}
	.st1{fill:#003D58;}
</style>
<g>
	<path class="st0" d="M23.7,9.6c2.8,1,5.4,2.4,7.7,4.3c0.5-2.4,0.8-4.8,0.8-7.3c0-0.8,0-1.6-0.1-2.4c-2.8-1.6-5.8-2.8-9-3.5
		C20.9,0.3,18.5,0,16.1,0c-2.4,0-4.8,0.3-7.1,0.8c-3.2,0.7-6.2,1.9-9,3.5C0,5,0,5.8,0,6.6c0,2.5,0.3,4.9,0.8,7.3l0,0l0,0
		c1.3,5.6,4,10.7,8,14.9c0.2,0.2,0.4,0.4,0.6,0.6c2,2,4.3,3.7,6.7,5.1c2.4-1.4,4.7-3.1,6.7-5.1c0.2-0.2,0.4-0.4,0.6-0.6
		c3.4-3.6,5.9-7.8,7.3-12.4c-1.7-0.5-3.5-0.8-5.4-0.8c-1.1,0-2.2,0.1-3.3,0.3c-1.4,3.2-3.4,6-5.9,8.3c-0.8,0.7-1.6,1.4-2.4,1.9
		c-0.4,0.2-0.8,0.5-1.2,0.8c0,0,0,0,0,0c1.8-1.4,2.5-3,2.8-3.7c-3.6-3.6-6-8.4-6.7-13.8l0,0h0v0c2.4-0.8,4.9-1.2,7.6-1.2
		C18.8,8.3,21.3,8.8,23.7,9.6z M12.2,27.1c-0.5,0.3-1,0.6-1.5,0.8C11.2,27.7,11.7,27.4,12.2,27.1z"/>
	<g>
		<g>
			<path class="st1" d="M72.3,22c-0.3,0.4-0.8,0.7-1.5,1c-0.7,0.3-1.4,0.5-2.1,0.5c-1.2,0.1-2.2-0.2-3-1c-0.6-0.6-0.9-1.5-0.9-2.7
				v-8.9h-3.4v9.2c0,2.1,0.6,3.8,1.9,5c1.3,1.2,3,1.7,5,1.6c1.6-0.1,3-0.6,4-1.4v1.3h3.5v-0.5v-2.1V11.1h-3.5V22z"/>
			<path class="st1" d="M84.7,10.5c-1.6,0.1-3,0.6-4,1.4v-0.9h-0.5h-3v2.6v13.2h3.5V15.4c0.3-0.4,0.8-0.7,1.5-1
				c0.7-0.3,1.4-0.5,2.1-0.5c1.2-0.1,2.2,0.2,3,1c0.6,0.6,0.9,1.5,0.9,2.7v9.3h3.4v0v0v0v0v-9.6c0-2.1-0.6-3.8-1.9-5
				C88.4,11,86.8,10.4,84.7,10.5z"/>
			<path class="st1" d="M101.1,10.6c-2.2,0-4.1,0.8-5.7,2.3c-1.6,1.5-2.3,3.5-2.3,5.9c0,2.4,0.8,4.4,2.3,5.9
				c1.5,1.5,3.4,2.2,5.6,2.2c1.5,0,3-0.4,4.3-1.1c1.3-0.7,2.3-1.7,3-2.9c0.1-0.3,0.3-0.5,0.4-0.8l-3.9-0.1c-0.9,1-2.2,1.5-3.8,1.5
				c-1.1,0-2.1-0.3-2.9-0.9c-0.8-0.6-1.2-1.4-1.4-2.4h12.1c0-0.1,0-0.2,0-0.5c0-0.2,0-0.4,0-0.5v-0.5c0-2.4-0.8-4.3-2.3-5.8
				C105.2,11.3,103.3,10.6,101.1,10.6z M96.8,17.1c0.2-0.8,0.7-1.5,1.2-2.1c0.9-0.7,1.9-1.1,3.1-1.1c1.2,0,2.2,0.4,3.1,1.1
				c0.6,0.5,1,1.2,1.2,2.1H96.8z"/>
			<rect x="63.7" y="5.7" class="st1" width="4.4" height="3.5"/>
			<rect x="68.9" y="5.7" class="st1" width="4.4" height="3.5"/>
			<path class="st1" d="M121.4,18.6l-0.1,3.6c-0.3,0.3-0.8,0.6-1.4,0.9c-0.7,0.3-1.4,0.5-2.1,0.5c-1.2,0.1-2.2-0.2-3-1
				c-0.6-0.6-0.9-1.5-0.9-2.7v-8.9h-3.4v9.2c0,2.1,0.6,3.8,1.9,5c1.3,1.2,3,1.7,5,1.6c1.6-0.1,2.8-0.5,3.8-1.3l0,0.1v0v0v0v0v0v0v0
				v0v0v0v0v0v0v0v0v0v0v0v0v0v0v0v0v0v0v0v0v0v0v0v0v0v0v0.2c0,1.4-0.4,2.4-1.3,3c-0.9,0.7-1.9,1-3,0.9c-0.9,0-1.8-0.3-2.8-0.8
				c-0.7-0.3-1.3-0.8-1.9-1.2l-1.8,2.8c0.8,0.7,1.8,1.3,2.9,1.8c1.3,0.6,2.5,0.9,3.6,0.9c1.2,0,2.2-0.1,3.2-0.5
				c0.9-0.3,1.7-0.7,2.3-1.2c0.6-0.5,1.1-1.1,1.4-1.9c0.4-0.7,0.6-1.4,0.8-2.1c0.1-0.7,0.2-1.5,0.2-2.2V11.1h-3.3V18.6z"/>
			<path class="st1" d="M133.5,10.4c-1.3,0-2.6,0.4-3.9,1V5.7h-3.5v18.6v2.1v0.5h3.5v-1.2c1.4,0.8,2.9,1.2,4.5,1.2
				c2.3,0,4.2-0.8,5.5-2.4c1.4-1.6,2-3.6,2-6c0-2.5-0.8-4.4-2.4-5.9C137.7,11,135.8,10.3,133.5,10.4z M136.8,22.4
				c-0.9,0.8-2,1.2-3.5,1.2c-0.8,0-1.5-0.1-2.1-0.4c-0.7-0.3-1.2-0.6-1.6-1.1v-6.6c0.3-0.4,0.8-0.7,1.5-1.1c0.7-0.3,1.4-0.5,2.2-0.5
				c1.4,0,2.6,0.4,3.5,1.2c0.9,0.8,1.3,2.1,1.3,3.6C138.1,20.3,137.7,21.5,136.8,22.4z"/>
			<rect x="182.5" y="10.6" class="st1" width="3.5" height="16.3"/>
			<rect x="164.1" y="5.7" class="st1" width="8.5" height="3.5"/>
			<rect x="177.6" y="5.7" class="st1" width="3.5" height="21.1"/>
			<path class="st1" d="M155.7,11.9c-1.3-0.9-2.8-1.4-4.5-1.4c-2.2,0-4.1,0.8-5.7,2.3c-1.6,1.5-2.3,3.5-2.3,5.9
				c0,2.4,0.8,4.4,2.3,5.9c1.6,1.5,3.5,2.3,5.7,2.3c1.7,0,3.2-0.5,4.5-1.3v1.3h3.5V10.6h-3.5V11.9z M155.7,19.6
				c-0.1,1.1-0.5,2-1.2,2.7c-0.8,0.8-1.9,1.2-3.3,1.2c-1.4,0-2.5-0.4-3.3-1.2c-0.9-0.8-1.3-2-1.3-3.6c0-1.5,0.4-2.7,1.3-3.6
				c0.8-0.8,1.9-1.2,3.3-1.2c1.4,0,2.5,0.4,3.3,1.2c0.7,0.7,1.1,1.6,1.2,2.7V19.6z"/>
			<path class="st1" d="M205,11.9c-1.3-0.9-2.8-1.4-4.5-1.4c-2.2,0-4.1,0.8-5.7,2.3c-1.6,1.5-2.3,3.5-2.3,5.9c0,2.4,0.8,4.4,2.3,5.9
				c1.6,1.5,3.5,2.3,5.7,2.3c1.7,0,3.2-0.5,4.5-1.3v1.3h3.5V10.6H205V11.9z M205,19.6c-0.1,1.1-0.5,2-1.2,2.7
				c-0.8,0.8-1.9,1.2-3.3,1.2c-1.4,0-2.5-0.4-3.3-1.2c-0.9-0.8-1.3-2-1.3-3.6c0-1.5,0.4-2.7,1.3-3.6c0.8-0.8,1.9-1.2,3.3-1.2
				c1.4,0,2.5,0.4,3.3,1.2c0.7,0.7,1.1,1.6,1.2,2.7V19.6z"/>
			<rect x="187.5" y="5.7" class="st1" width="3.5" height="21.1"/>
			<path class="st1" d="M172.6,11.7c-1.4-0.8-3-1.3-4.5-1.2c-2.3,0-4.1,0.8-5.5,2.4c-1.4,1.6-2,3.6-2,6c0,2.5,0.8,4.4,2.3,5.9
				c1.6,1.5,3.5,2.2,5.8,2.1c1.1,0,2.4-0.4,3.9-1.2v0v0v0v0v0v0v0v0v0v0v0v0v0v0v0v0v0v0v0v0v0v0v0v0v0v0v0v0v0v0v0v0v0v0.2
				c0,1.4-0.4,2.4-1.3,3c-0.9,0.7-1.9,1-3,0.9c-0.9,0-1.8-0.3-2.8-0.8c-0.9-0.5-1.7-1.1-2.4-1.8c-0.2,0.4-0.5,0.8-0.9,1.4
				c-0.4,0.6-0.7,1-0.9,1.4c1,1,2.1,1.8,3.5,2.3c1.3,0.6,2.5,0.9,3.6,0.9c1.2,0,2.2-0.1,3.2-0.5c0.9-0.3,1.7-0.7,2.3-1.2
				c0.6-0.5,1.1-1.1,1.4-1.9c0.4-0.7,0.6-1.4,0.8-2.1c0.1-0.7,0.2-1.5,0.2-2.2v-13h0v-2.6h-3.5V11.7z M172.6,22
				c-0.3,0.4-0.8,0.7-1.5,1.1c-0.7,0.3-1.4,0.5-2.2,0.5c-1.4,0-2.6-0.4-3.5-1.2c-0.9-0.8-1.3-2.1-1.3-3.6c0-1.6,0.4-2.8,1.3-3.6
				c0.9-0.8,2-1.2,3.5-1.2c0.8,0,1.5,0.1,2.1,0.4c0.7,0.3,1.2,0.7,1.6,1.1V22z"/>
			<path class="st1" d="M220.4,10.9c-0.7-0.2-1.5-0.3-2.3-0.3c-1.7,0-3.2,0.5-4.5,1.3v-1.3h-3.5v16.3h3.5v-1.3v-6v-1.4v-0.4
				c0.1-1.1,0.5-2,1.2-2.7c0.8-0.8,1.9-1.2,3.3-1.2c0.4,0,0.8,0,1.2,0.1L220.4,10.9z"/>
		</g>
		<path class="st1" d="M59.6,14.6L59.6,14.6L59.6,14.6l-10.1,0V18h6.5c-0.8,3.1-3.6,5.4-6.9,5.4c-3.9,0-7.1-3.2-7.1-7.1
			s3.2-7.1,7.1-7.1c1.8,0,3.5,0.7,4.8,1.8h4.4c-1.8-3.2-5.3-5.3-9.2-5.3c-5.9,0-10.6,4.7-10.6,10.6c0,5.9,4.7,10.6,10.6,10.6
			c5.9,0,10.6-4.7,10.6-10.6C59.8,15.7,59.7,15.1,59.6,14.6z"/>
	</g>
	<path class="st1" d="M218.7,27c-1,0-1.7-0.8-1.7-1.7c0-1,0.8-1.7,1.7-1.7c1,0,1.7,0.8,1.7,1.7C220.4,26.2,219.7,27,218.7,27z
		 M218.7,23.7c-0.8,0-1.5,0.7-1.5,1.5c0,0.8,0.7,1.5,1.5,1.5s1.5-0.7,1.5-1.5C220.2,24.4,219.5,23.7,218.7,23.7z M219.1,26.2
		l-0.4-0.8h-0.3v0.8h-0.3v-1.9h0.7c0.3,0,0.6,0.3,0.6,0.6c0,0.3-0.2,0.5-0.4,0.5l0.5,0.8H219.1z M218.7,24.5h-0.4v0.7h0.4
		c0.2,0,0.4-0.1,0.4-0.3C219.1,24.6,219,24.5,218.7,24.5z"/>
</g>
</svg>
