<?xml version="1.0" encoding="utf-8"?>
<!-- Generator: Adobe Illustrator 25.0.1, SVG Export Plug-In . SVG Version: 6.00 Build 0)  -->
<svg version="1.1" id="Layer_1" xmlns="http://www.w3.org/2000/svg" xmlns:xlink="http://www.w3.org/1999/xlink" x="0px" y="0px"
	 viewBox="0 0 27 278.2" style="enable-background:new 0 0 27 278.2;" xml:space="preserve">
<style type="text/css">
	.st0{fill:#FFFFFF;}
</style>
<g id="Group_57" transform="translate(-58.23 -210.601)">
	<g id="Group_15" transform="translate(85.086 210.601) rotate(90)">
		<g id="Group_13" transform="translate(0 0)">
			<path id="Path_2" class="st0" d="M32.4,15.4c-0.4,0.4-0.9,0.7-1.4,1c-0.6,0.3-1.3,0.5-2,0.5c-1,0.1-2.1-0.2-2.8-0.9
				c-0.6-0.7-1-1.6-0.9-2.5V5H22v8.7c-0.1,1.8,0.6,3.5,1.8,4.7c1.3,1.2,3,1.7,4.7,1.5c1.4,0,2.7-0.5,3.8-1.3V20h3.3V5h-3.3
				L32.4,15.4z"/>
			<path id="Path_3" class="st0" d="M44.1,4.6c-1.4,0-2.7,0.5-3.8,1.3V5H37v15h3.3V9.2c0.4-0.4,0.9-0.7,1.4-0.9
				c0.6-0.3,1.3-0.5,2-0.5c1-0.1,2.1,0.2,2.8,0.9c0.6,0.7,1,1.6,0.9,2.5V20h3.2v-9.2c0.1-1.8-0.6-3.5-1.8-4.7
				C47.6,4.9,45.8,4.4,44.1,4.6z"/>
			<path id="Path_4" class="st0" d="M59.6,4.6c-2,0-3.9,0.7-5.4,2.2c-1.5,1.5-2.3,3.5-2.2,5.6c-0.1,2.1,0.7,4.1,2.2,5.5
				c1.4,1.4,3.3,2.2,5.3,2.1c1.4,0,2.8-0.3,4.1-1c1.2-0.6,2.2-1.6,2.9-2.8c0.1-0.3,0.3-0.5,0.4-0.7l-3.7-0.1c-0.9,1-2.2,1.5-3.6,1.4
				c-1,0-1.9-0.3-2.7-0.9c-0.7-0.6-1.2-1.4-1.3-2.3H67c0-0.1,0-0.3,0-0.4c0-0.2,0-0.4,0-0.5v-0.5c0.1-2.1-0.7-4.1-2.2-5.5
				C63.5,5.3,61.6,4.5,59.6,4.6z M55.5,10.8c0.2-0.7,0.6-1.4,1.1-2c0.8-0.7,1.9-1.1,2.9-1.1c1.1,0,2.1,0.4,2.9,1.1
				c0.6,0.5,1,1.2,1.1,2H55.5z"/>
			
				<rect id="Rectangle_7" x="24.7" y="-0.4" transform="matrix(2.535182e-06 1 -1 2.535182e-06 28.0299 -24.7163)" class="st0" width="3.3" height="4.2"/>
			
				<rect id="Rectangle_8" x="29.6" y="-0.4" transform="matrix(2.535182e-06 1 -1 2.535182e-06 32.9499 -29.6363)" class="st0" width="3.3" height="4.2"/>
			<path id="Path_5" class="st0" d="M78.8,12.1l-0.1,3.4c-0.4,0.4-0.8,0.7-1.3,0.9c-0.6,0.3-1.3,0.5-2,0.5c-1,0.1-2.1-0.2-2.8-0.9
				c-0.6-0.7-1-1.6-0.9-2.5V5h-3.2v8.7c-0.1,1.8,0.6,3.5,1.8,4.7c1.3,1.2,3,1.7,4.7,1.5c1.3,0,2.6-0.5,3.6-1.2v0.1v0.9
				c0.1,1.1-0.4,2.2-1.2,2.9c-0.8,0.6-1.8,1-2.9,0.9c-0.9-0.1-1.8-0.3-2.6-0.7c-0.6-0.3-1.2-0.7-1.8-1.2l-1.7,2.6
				c0.8,0.7,1.7,1.3,2.7,1.7c1.1,0.5,2.2,0.8,3.4,0.8c1,0,2-0.1,3-0.4c0.8-0.3,1.5-0.7,2.1-1.2c0.6-0.5,1-1.1,1.3-1.8
				c0.3-0.6,0.6-1.3,0.7-2c0.1-0.7,0.2-1.4,0.2-2.1V5h-3.1V12.1z"/>
			<path id="Path_6" class="st0" d="M90.2,4.4c-1.3,0.1-2.5,0.4-3.6,1V0h-3.3v20h3.3v-1.1c1.3,0.8,2.8,1.2,4.3,1.2
				c2,0.1,3.9-0.8,5.2-2.3c1.3-1.6,2-3.6,1.9-5.7c0.1-2.1-0.7-4.2-2.2-5.6C94.3,5,92.3,4.3,90.2,4.4z M93.4,15.7
				c-0.9,0.8-2.1,1.2-3.3,1.2c-0.7,0-1.4-0.1-2-0.4c-0.6-0.2-1.1-0.6-1.5-1V9.2c0.4-0.4,0.9-0.8,1.4-1c0.6-0.3,1.3-0.4,2.1-0.4
				c1.2-0.1,2.4,0.4,3.3,1.2c0.9,0.9,1.3,2.2,1.3,3.4C94.7,13.6,94.3,14.8,93.4,15.7L93.4,15.7z"/>
			
				<rect id="Rectangle_9" x="130.6" y="10.6" transform="matrix(2.535182e-06 1 -1 2.535182e-06 150.6151 -126.0168)" class="st0" width="15.4" height="3.3"/>
			
				<rect id="Rectangle_10" x="121.6" y="-2.4" transform="matrix(2.535182e-06 1 -1 2.535182e-06 124.9297 -121.6183)" class="st0" width="3.3" height="8"/>
			
				<rect id="Rectangle_11" x="123.6" y="8.3" transform="matrix(2.535182e-06 1 -1 2.535182e-06 143.6282 -123.6258)" class="st0" width="20" height="3.3"/>
			<path id="Path_7" class="st0" d="M111.2,5.8C110,5,108.5,4.5,107,4.5c-2,0-4,0.8-5.4,2.2c-1.5,1.5-2.3,3.5-2.2,5.6
				c-0.1,2.1,0.7,4.1,2.2,5.6c1.4,1.4,3.4,2.2,5.4,2.2c1.5,0,3-0.4,4.3-1.3V20h3.3V4.6h-3.3V5.8z M111.2,13.2
				c-0.1,1-0.5,1.9-1.2,2.5c-0.8,0.8-2,1.2-3.1,1.1c-1.1,0.1-2.3-0.3-3.1-1.1c-0.9-0.9-1.3-2.1-1.2-3.4c-0.1-1.2,0.4-2.5,1.2-3.4
				c0.8-0.8,2-1.2,3.1-1.1c1.1,0,2.3,0.4,3.1,1.1c0.7,0.7,1.1,1.6,1.2,2.5L111.2,13.2z"/>
			<path id="Path_8" class="st0" d="M157.9,5.8c-1.3-0.9-2.7-1.3-4.3-1.3c-2,0-4,0.8-5.4,2.2c-1.5,1.5-2.3,3.5-2.2,5.6
				c-0.1,2.1,0.7,4.1,2.2,5.6c1.4,1.4,3.4,2.2,5.4,2.2c1.5,0,3-0.4,4.3-1.3V20h3.3V4.6h-3.3V5.8z M157.9,13.2
				c-0.1,1-0.5,1.9-1.2,2.5c-0.8,0.8-2,1.2-3.1,1.1c-1.1,0.1-2.3-0.3-3.1-1.1c-0.9-0.9-1.3-2.1-1.2-3.4c-0.1-1.2,0.4-2.5,1.2-3.4
				c0.8-0.8,2-1.2,3.1-1.1c1.1,0,2.3,0.4,3.1,1.1c0.7,0.7,1.1,1.6,1.2,2.5L157.9,13.2z"/>
			
				<rect id="Rectangle_12" x="133" y="8.3" transform="matrix(2.535182e-06 1 -1 2.535182e-06 153.0071 -133.0048)" class="st0" width="20" height="3.3"/>
			<path id="Path_9" class="st0" d="M127.3,5.6c-1.3-0.8-2.8-1.2-4.3-1.2c-2-0.1-3.9,0.8-5.2,2.3c-1.3,1.6-2,3.6-1.9,5.7
				c-0.1,2.1,0.7,4.1,2.2,5.6c1.5,1.4,3.5,2.1,5.5,2c1.3-0.1,2.5-0.5,3.7-1.1v0.9c0.1,1.1-0.4,2.2-1.2,2.9c-0.8,0.6-1.8,1-2.9,0.9
				c-0.9-0.1-1.8-0.3-2.6-0.7c-0.9-0.4-1.6-1-2.3-1.7c-0.2,0.3-0.5,0.8-0.9,1.3s-0.7,1-0.9,1.3c0.9,0.9,2.1,1.7,3.3,2.2
				c1.1,0.5,2.2,0.8,3.4,0.8c1,0,2-0.1,3-0.4c0.8-0.3,1.5-0.7,2.1-1.2c0.6-0.5,1-1.1,1.3-1.8c0.3-0.6,0.6-1.3,0.7-2
				c0.1-0.7,0.2-1.4,0.2-2.1V7l0,0V4.6h-3.3L127.3,5.6z M127.3,15.4c-0.4,0.4-0.9,0.8-1.4,1c-0.6,0.3-1.4,0.4-2.1,0.4
				c-1.2,0.1-2.4-0.4-3.3-1.2c-0.9-0.9-1.3-2.2-1.3-3.4c-0.1-1.3,0.4-2.5,1.3-3.4c0.9-0.8,2.1-1.2,3.3-1.2c0.7,0,1.4,0.1,2,0.4
				c0.6,0.2,1.1,0.6,1.5,1V15.4z"/>
			<path id="Path_10" class="st0" d="M165.4,20h0.6v-8.5c0.1-1,0.5-1.9,1.2-2.5c0.8-0.8,2-1.2,3.1-1.1c0.4,0,0.8,0,1.2,0.1l1.1-3.1
				c-0.7-0.2-1.5-0.3-2.2-0.3c-1.5,0-3,0.4-4.3,1.3V4.6h-3.3V20L165.4,20L165.4,20z"/>
			<path id="Path_11" class="st0" d="M20.4,8.3L20.4,8.3L20.4,8.3l-9.6,0v3.3H17c-0.9,3.6-4.5,5.8-8.1,4.9s-5.8-4.5-4.9-8.1
				s4.5-5.8,8.1-4.9c1.1,0.3,2.1,0.8,2.9,1.6h4.2c-2.8-4.9-9.1-6.7-14-3.9s-6.7,9.1-3.9,14s9.1,6.7,14,3.9
				C19.1,16.9,21.1,12.6,20.4,8.3L20.4,8.3z"/>
		</g>
		<g id="Group_14" transform="translate(169.124 15.663)">
			<path id="Path_12" class="st0" d="M2.9,4.7c-1.3,0-2.4-1.1-2.4-2.4C0.5,1.1,1.5,0,2.9,0c1.3,0,2.4,1.1,2.4,2.4
				C5.2,3.7,4.2,4.7,2.9,4.7C2.9,4.7,2.9,4.7,2.9,4.7z M2.9,0.3c-1.1,0-2,0.9-2,2c0,1.1,0.9,2,2,2c0,0,0,0,0,0c1.1,0,2-0.9,2-2
				C4.9,1.3,4,0.3,2.9,0.3L2.9,0.3z M3.4,3.7L2.8,2.6H2.4v1.1H2.1V1.1H3c0.4,0,0.8,0.3,0.8,0.8c0,0,0,0,0,0c0,0.3-0.2,0.6-0.6,0.7
				l0.6,1.1L3.4,3.7z M2.9,1.4H2.4v0.9h0.5c0.3,0,0.5-0.2,0.5-0.4c0,0,0,0,0,0C3.4,1.6,3.2,1.4,2.9,1.4C2.9,1.4,2.9,1.4,2.9,1.4
				L2.9,1.4z"/>
		</g>
	</g>
	<g id="Group_17" transform="translate(80.057 488.344) rotate(180)">
		<g id="Group_17-2" transform="translate(0 88.98) rotate(-90)">
			<path id="Path_21" class="st0" d="M5.6,3.4c0.1-0.3,0.2-0.6,0.2-1c0-0.5-0.1-1.1-0.5-1.5C5,0.4,4.3,0,3.6,0c-0.5,0-1,0.2-1.4,0.5
				c-0.2,0-0.4,0-0.6,0c-0.3-0.1-0.5,0-0.8,0.2C1,2.3,1,3.6,1,4.4L0.9,5.9C0.8,6.5,0.7,7,0.5,7.6c0,0.2,0.1,0.5,0.3,0.6
				c0.1,0,0.3-0.1,0.4-0.1l0.1,0.1C1.2,8.3,1.1,8.4,1,8.5C0.8,8.7,0.7,8.8,0.7,9c0,0.1,0.1,0.3,0.3,0.5c0.2,0.1,0.4,0.2,0.6,0.3
				c1.2,0,2.3-0.4,3.2-1.2c0.3-0.3,0.6-0.6,0.8-1c0.1-0.3,0.2-0.6,0.2-1C5.9,6,5.7,5.5,5.4,5C5.2,4.8,5,4.6,4.8,4.5
				C5.1,4.2,5.4,3.8,5.6,3.4z M3.8,8C3.3,8.4,2.7,8.7,2,8.7C1.8,8.5,1.7,8.3,1.6,8.1C1.8,7.7,2,7.4,2.1,7c0.1-0.4,0.3-0.9,0.5-1.2
				C2.9,5.3,3.3,5,3.8,4.9c0.3,0.1,0.6,0.3,0.7,0.6C4.7,5.7,4.7,6,4.7,6.3C4.7,7,4.3,7.6,3.8,8L3.8,8z M3.8,3.9
				C3.7,4,2.8,4.7,2.2,4.5c0.1-1,0.1-1.8,0.1-2.4C2.4,2,2.5,1.8,2.6,1.7C2.9,1.3,3.3,1,3.8,0.8c0.3,0.1,0.6,0.3,0.7,0.6
				C4.7,1.7,4.7,2,4.7,2.2C4.7,2.9,4.3,3.5,3.8,3.9L3.8,3.9z"/>
			<path id="Path_22" class="st0" d="M12,4.8c-0.1-0.1-0.3-0.2-0.4-0.2c-0.2,0-0.5,0.2-0.8,0.7c-0.2,0.2-0.3,0.5-0.4,0.7
				C9.7,6.6,9,7.1,8.2,7.6C7.9,7.7,7.6,7.9,7.3,7.9l0-0.2c0-0.4,0.2-0.8,0.3-1.2C7.9,6,8,5.7,8,5.7c0-0.4-0.2-0.6-0.5-0.6
				c-0.3,0-0.6,0.5-0.8,1.3C6.5,7,6.4,7.5,6.3,8c0,0.5,0.4,0.9,0.9,0.9c0.6-0.1,1.1-0.4,1.5-0.8c0.4-0.3,0.8-0.6,1.2-1v0.1
				C9.9,7.7,9.8,8.1,9.9,8.6c0,0.2,0.1,0.5,0.2,0.7c0.2,0.3,0.3,0.4,0.6,0.4c0.1,0,0.2,0,0.3-0.1c0.1-0.1,0-0.3-0.1-0.7l0-0.6
				c0-0.5,0.1-1,0.4-1.4c0.2-0.4,0.4-0.7,0.7-1c0.2-0.2,0.3-0.4,0.3-0.7C12.2,5,12.2,4.9,12,4.8z"/>
			<path id="Path_23" class="st0" d="M17.4,2.6c-0.3,0.6-0.6,1.1-0.8,1.8c-0.2,0.7-0.5,1.4-0.7,2.1c-0.3,0.4-0.6,0.8-1,1.1
				c-0.4,0.4-0.8,0.7-1.4,1c0-0.6,0.1-1.2,0.3-1.7c0.2-1,0.3-1.5,0.3-1.5c-0.1-0.4-0.4-0.6-0.7-0.3c-0.2,0.4-0.3,0.8-0.4,1.3
				c-0.3,1.9-0.5,2.9-0.5,2.9c0,0.2,0.1,0.4,0.5,0.5c0.3-0.1,0.5-0.2,0.8-0.3c0.6-0.4,1.1-0.8,1.6-1.3c-0.5,1.9-0.9,3.3-1.2,4.3
				c-0.6,1.7-0.9,3.5-1.1,5.3c0,0.2,0,0.3,0.1,0.4c0.2,0.3,0.3,0.3,0.6,0.1c0.1-0.1,0.1-0.2,0.2-0.3c0.1-0.8,0.2-1.6,0.4-2.4
				c0.4-2.2,1.1-5,2.1-8.5c0.1-0.2,0.1-0.3,0.2-0.5c0.1-0.2,0.2-0.3,0.2-0.3c0.8-0.8,1.3-1.9,1.5-3C18.3,2.4,17.9,2.2,17.4,2.6z"/>
			<path id="Path_24" class="st0" d="M23.7,4.8c-0.1-0.1-0.3-0.2-0.4-0.2c-0.2,0-0.5,0.2-0.8,0.7c-0.2,0.2-0.3,0.5-0.4,0.7
				c-0.7,0.5-1.5,1-2.2,1.5c-0.3,0.2-0.6,0.3-0.9,0.4l0-0.2c0-0.4,0.2-0.8,0.3-1.2c0.2-0.5,0.3-0.8,0.3-0.8c0-0.4-0.2-0.6-0.5-0.6
				c-0.3,0-0.6,0.5-0.9,1.3C18.2,7,18.1,7.5,18.1,8c0,0.5,0.4,0.9,0.9,0.9c0.6-0.1,1.1-0.4,1.5-0.8c0.4-0.3,0.8-0.6,1.2-1v0.1
				c-0.1,0.4-0.1,0.8-0.1,1.2c0,0.2,0.1,0.5,0.2,0.7c0.2,0.3,0.3,0.4,0.6,0.4c0.1,0,0.2,0,0.3-0.1c0.1-0.1,0-0.3-0.1-0.7l0-0.6
				c0-0.5,0.1-1,0.4-1.4c0.2-0.4,0.4-0.7,0.7-1c0.2-0.2,0.3-0.4,0.4-0.7C23.9,5,23.9,4.9,23.7,4.8z"/>
			<path id="Path_25" class="st0" d="M26.7,7.6c0.2-0.6,0.6-1.1,1-1.5C28.2,5.6,28.6,5,29,4.4c0-0.2-0.3-0.2-0.6-0.2
				c-0.5,0.3-0.9,0.6-1.3,1c-0.5,0.5-1,1-1.4,1.6l0-0.5c0-0.1,0-0.7,0.1-1.7c0.1-1,0.1-1.7,0.1-2.1V1.1c0-0.5-0.2-0.7-0.7-0.7
				c-0.2,0-0.3,0.2-0.3,0.7c0,0,0,0.2,0,0.5s0,0.6,0,0.7c0,0.8,0,1.5-0.1,2.1s0,0.9,0,0.8l-0.3,3.5c0,0.5,0.2,0.8,0.5,0.8
				c0.3,0,0.6-0.2,0.7-0.5l0.4-0.7c0,0.1,0.3,0.3,0.8,0.5c0.4,0.2,0.8,0.4,1.3,0.5c0.5,0,0.7,0,0.8,0s0.3,0,0.6-0.1
				c0.1,0,0.1-0.1,0.1-0.2c-0.5-0.2-1-0.4-1.6-0.6C27.2,8.3,26.7,7.9,26.7,7.6z M25.6,7.9C25.6,7.9,25.5,7.9,25.6,7.9l-0.1-0.3
				c0-0.3,0-0.6,0.1-0.8c0,0.6,0.1,1,0.1,0.9l0,0.1C25.7,7.8,25.7,7.9,25.6,7.9L25.6,7.9z"/>
			<path id="Path_26" class="st0" d="M35.3,4.3c-0.4,0-0.9,0-1.3,0.2c-0.3,0.1-0.5,0.2-0.7,0.4c-0.4-0.1-0.6-0.1-0.7,0.1
				c0,0.2,0,0.4,0,0.6l0,1.9c0,0,0,0.1,0,0.3c0,0.2,0,0.4,0,0.5c0,0.9,0.2,1.4,0.5,1.4c0.3,0,0.5-0.2,0.5-0.4l0-1.9
				c0-0.5,0.1-1.1,0.3-1.5C34,5.3,34.5,5.1,35,5.1c0.4,0,0.8,0.2,0.9,0.6c0.2,0.4,0.3,0.4,0.5,0.1l0.1-0.2C36.6,4.9,36,4.3,35.3,4.3
				C35.3,4.3,35.3,4.3,35.3,4.3z"/>
			<path id="Path_27" class="st0" d="M40,8.5c-0.3,0.2-0.6,0.3-1,0.3c-0.5,0-1-0.3-1.2-0.7c0.2,0,0.5,0,0.7,0
				c0.6-0.1,1.1-0.4,1.4-0.9c0.3-0.5,0.5-1,0.5-1.6c0-0.3-0.1-0.6-0.3-0.9c-0.2-0.3-0.5-0.4-0.9-0.4c-0.8,0-1.5,0.5-2,1.1
				c-0.5,0.6-0.7,1.3-0.7,2c0,0.5,0.2,1,0.5,1.3c0.2,0.4,0.6,0.6,1,0.7c0.3,0.1,0.6,0.1,0.9,0.1c0.5-0.1,1-0.3,1.4-0.7
				c0.2-0.2,0.3-0.4,0.3-0.5c-0.1-0.1-0.1-0.1-0.2-0.1C40.5,8.3,40.3,8.3,40,8.5z M37.7,6.9C37.7,6.4,38,6,38.3,5.7
				c0.4-0.5,0.8-0.7,1-0.7c0.1,0,0.1,0.1,0.1,0.1c0,0.4-0.1,0.7-0.2,1.1c-0.2,0.6-0.5,0.9-0.9,0.9c-0.2,0-0.4,0-0.7,0L37.7,6.9z"/>
			<path id="Path_28" class="st0" d="M44.5,3.6c-0.3-0.2-0.7-0.2-1.1-0.2c-0.9,0-1.3,0.4-1.3,1.2c0,0.5,0.1,1,0.4,1.5
				c0,0.1,0.3,0.5,0.7,1.2c0.2,0.3,0.4,0.6,0.4,1c0,0.3-0.2,0.5-0.6,0.7c-0.3,0.2-0.6,0.3-0.9,0.3c-0.2,0-0.2,0-0.3-0.1
				c0-0.3,0.2-0.7,0.7-1.2c-0.1-0.1-0.3-0.2-0.5-0.2c-0.4,0-0.7,0.3-0.9,0.6c-0.2,0.3-0.4,0.6-0.4,1c0,0.3,0.1,0.5,0.4,0.7
				c0.2,0.1,0.4,0.2,0.7,0.2l0.4,0c0.5,0,1-0.2,1.4-0.5c0.5-0.2,0.8-0.7,0.9-1.3c-0.1-0.7-0.3-1.3-0.8-1.9c-0.4-0.5-0.7-1.2-0.8-1.8
				c0-0.4,0.3-0.6,0.8-0.6c0.4,0.1,0.6,0.3,0.5,0.5c0.2,0.4,0.5,0.4,0.8,0.1c0.1-0.1,0.1-0.2,0.1-0.3C45.2,4,44.9,3.7,44.5,3.6z"/>
			<path id="Path_29" class="st0" d="M54.8,8.9c-0.3,0.1-0.7,0.1-1,0.2c-0.5,0-1-0.2-1.4-0.6c-0.3-0.4-0.5-0.8-0.8-1.2
				c-0.2-0.4-0.5-0.7-0.7-0.7c-0.2,0-0.3,0.1-0.4,0.2C50.5,6.9,50.4,7,50.3,7c0-0.1,0-0.2,0-0.3c0-0.4-0.1-0.7-0.2-1
				c-0.1-0.3-0.4-0.5-0.7-0.5c-0.5,0-1,0.2-1.4,0.6l-1,0.9l0-0.2c0,0,0-0.2,0.1-0.6c0.1-0.3,0.1-0.5,0.1-0.6c0-0.3-0.3-0.5-0.5-0.5
				c-0.3,0.1-0.5,0.4-0.5,0.7C46.1,6,46,6.5,46,6.9c-0.2,0.7-0.3,1.4-0.4,2.1c0,0.1,0.1,0.2,0.1,0.3c0.1,0.2,0.2,0.3,0.4,0.3
				c0.1,0,0.1,0,0.2,0c0.3-0.6,0.7-1.1,1.1-1.7c0.8-1.1,1.4-1.7,1.9-1.7c0.1,0,0.1,0.1,0.2,0.5c0,0,0,0.4-0.2,1
				c-0.1,0.7-0.1,1-0.1,1c0,0.2,0.1,0.3,0.3,0.4c0.1,0.1,0.3,0.2,0.5,0.2c0.1,0,0.2-0.2,0.5-0.5c0,0,0.2-0.3,0.5-0.8
				c0-0.1,0.1-0.1,0.1-0.1c0.2,0.3,0.4,0.6,0.6,0.9c0.4,0.5,0.9,0.8,1.5,0.9c0.7,0,1.4-0.2,1.9-0.6l0.1-0.2C55,9,54.9,8.9,54.8,8.9z
				"/>
			<path id="Path_30" class="st0" d="M58.4,2.2C58.3,2,58,2,57.5,2C57.2,2,57,2,56.8,2.1c-0.4,0.1-0.5,0.3-0.5,0.4
				c0,0.3,0.3,0.6,0.6,0.6c0.2-0.1,0.4-0.1,0.5-0.2c0.2-0.1,0.5-0.2,0.7-0.3C58.3,2.5,58.4,2.4,58.4,2.2z"/>
			<path id="Path_31" class="st0" d="M56.1,8.2c0-0.5,0.1-1.1,0.2-1.6c0.1-0.6,0.2-0.9,0.2-0.9c0-0.1-0.1-0.2-0.2-0.3
				c-0.1-0.1-0.2-0.1-0.3-0.2c-0.2-0.1-0.4,0-0.5,0.2c0,0.3-0.1,0.6-0.1,1c-0.1,0.5-0.1,0.9-0.1,1.4c0,0.3,0,0.7,0.1,1
				c0.1,0.4,0.4,0.8,0.8,0.9h0.3c0.1-0.1,0.1-0.2,0-0.3C56.2,9,56.1,8.6,56.1,8.2z"/>
			<path id="Path_32" class="st0" d="M64.5,4.2c-0.2,0-0.4,0-0.7,0c0-0.2-0.1-0.3-0.1-0.4c-0.2-0.7-0.8-1.1-1.5-1.1
				c-0.4,0-0.8,0.2-1.1,0.5c-0.4,0.4-0.6,0.8-0.5,1.4c0,0.5,0.1,1,0.4,1.4c-0.5,0.5-0.8,1.3-0.8,2c0,0.8,0.3,1.2,0.9,1.2
				c0.6,0,1.2-0.5,1.8-1.4c0.6-0.7,0.9-1.6,0.9-2.6C64,5,64.1,5,64.3,5c0.5,0,1,0.4,1.1,0.9c0.1,0.5,0.2,1,0.2,1.5
				c0,0.1,0,0.2,0,0.3c-0.1,0.7-0.2,1.4-0.4,2.1c-0.4,1.3-0.9,2.5-1.6,3.6c-0.5,0.7-1.1,1.4-1.7,2c-0.6,0.7-1.5,1.1-2.4,1.2
				c-0.7,0-1.1-0.7-1.1-2.1c0-0.2,0-0.5,0.1-0.7c0-0.3,0.1-0.5,0.1-0.8c0-0.3-0.1-0.4-0.3-0.3c-0.1,0.4-0.3,0.7-0.4,1.1
				c-0.1,0.5-0.2,1.1-0.2,1.6c-0.1,1,0.6,2,1.7,2.1c0.1,0,0.2,0,0.3,0c1.2-0.2,2.4-0.7,3.2-1.7c0.9-0.9,1.7-2,2.3-3.2
				c0.4-0.8,0.7-1.6,0.9-2.4c0.3-0.9,0.4-1.8,0.5-2.7c0-0.7-0.1-1.3-0.3-1.9C65.9,4.8,65.2,4.3,64.5,4.2z M62.3,6.9
				c-0.5,0.7-0.8,1-1.1,1.1l-0.1-0.1c-0.1-0.6,0.2-1.2,0.6-1.5c0.3-0.4,0.7-0.8,1.2-1C62.9,6,62.7,6.5,62.3,6.9z M62.3,4.7
				c-0.3,0.2-0.5,0.4-0.8,0.6c-0.1-0.2-0.1-0.3-0.1-0.5c0-0.3,0.1-0.6,0.3-0.9c0.2-0.2,0.4-0.4,0.7-0.4c0.3,0,0.5,0.3,0.6,0.9
				C62.8,4.4,62.5,4.5,62.3,4.7z"/>
			<path id="Path_33" class="st0" d="M70.5,5.2c-0.4,0-0.7,0.1-1,0.4c-0.3,0.2-0.5,0.6-0.5,1c0,0.2,0,0.3,0.1,0.5
				c0.1,0.2,0.2,0.4,0.3,0.4c0.1,0,0.3-0.1,0.3-0.3c0-0.1,0.1-0.3,0.1-0.4c0.2-0.4,0.3-0.5,0.5-0.5c0,0,0,0,0,0
				c0.1,0,0.2,0.2,0.2,0.6c0,0.5-0.2,1-0.5,1.3C69.8,8.7,69.3,9,68.7,9c-0.1,0-0.2,0-0.3-0.1c-0.1,0-0.3-0.2-0.3-0.5
				C68.1,8.3,68,8.1,68,7.9c0-0.7,0.3-1.3,0.7-1.9c0.3-0.6,0.9-1.1,1.7-1.2c0.1,0,0.2,0.1,0.2,0.1C70.7,5,70.8,5,70.9,5
				c0.1,0,0.3-0.1,0.3-0.2c0-0.3-0.1-0.5-0.3-0.7c-0.2-0.1-0.5-0.2-0.7-0.2c-0.9,0.1-1.6,0.6-2.1,1.3c-0.6,0.7-1,1.7-1,2.6
				c0,0.4,0.1,0.8,0.4,1.2c0.2,0.4,0.6,0.7,1.1,0.8c1.3,0,2.1-0.6,2.8-2c0.2-0.4,0.2-0.7,0.2-1.1c0-0.3-0.1-0.6-0.3-0.9
				C71.1,5.4,70.8,5.2,70.5,5.2z"/>
			<path id="Path_34" class="st0" d="M75.1,4.3c-0.4,0-0.9,0-1.3,0.2c-0.3,0.1-0.5,0.2-0.7,0.4c-0.4-0.1-0.6-0.1-0.7,0.1
				c0,0.2,0,0.4,0,0.6l0,1.9c0,0,0,0.1,0,0.3c0,0.2,0,0.4,0,0.5c0,0.9,0.2,1.4,0.5,1.4c0.3,0,0.5-0.2,0.5-0.4l0-1.9
				c0-0.5,0.1-1.1,0.3-1.5c0.2-0.5,0.7-0.8,1.2-0.8c0.4,0,0.8,0.2,0.9,0.6C76,6,76.1,6.1,76.3,5.8l0.1-0.2
				C76.4,4.9,75.9,4.3,75.1,4.3C75.1,4.3,75.1,4.3,75.1,4.3z"/>
			<path id="Path_35" class="st0" d="M82,4.8c-0.1-0.1-0.3-0.2-0.4-0.2c-0.2,0-0.5,0.2-0.8,0.7c-0.2,0.2-0.3,0.5-0.4,0.7
				c-0.7,0.5-1.5,1-2.2,1.5c-0.3,0.2-0.6,0.3-0.9,0.4l0-0.2c0-0.4,0.2-0.8,0.3-1.2C77.8,6,78,5.7,78,5.7c0-0.4-0.2-0.6-0.5-0.6
				c-0.3,0-0.6,0.5-0.8,1.3C76.4,7,76.4,7.5,76.3,8c0,0.5,0.4,0.9,0.9,0.9c0.6-0.1,1.1-0.4,1.5-0.8c0.4-0.3,0.8-0.6,1.2-1v0.1
				c-0.1,0.4-0.1,0.8-0.1,1.2c0,0.2,0.1,0.5,0.2,0.7c0.2,0.3,0.3,0.4,0.6,0.4c0.1,0,0.2,0,0.3-0.1c0.1-0.1,0-0.3-0.1-0.7l0-0.6
				c0-0.5,0.1-1,0.4-1.4c0.2-0.4,0.4-0.7,0.7-1c0.2-0.2,0.3-0.4,0.3-0.7C82.2,5,82.2,4.9,82,4.8z"/>
			<path id="Path_36" class="st0" d="M87.4,5.2c0-0.5-0.3-0.8-0.8-0.8c0,0-0.1,0-0.1,0c-0.5,0.2-1,0.5-1.4,0.9
				c-0.4,0.4-0.8,0.8-1.3,1.2c0-0.1,0-0.2,0.1-0.3c0-0.1,0-0.2,0-0.3c-0.1-0.3-0.3-0.5-0.6-0.5c-0.2,0-0.4,0.1-0.5,0.3
				c0,0.4-0.1,0.8-0.2,1.3c-0.1,0.7-0.2,1-0.2,1c0,0.1,0.1,0.2,0.1,0.3c0.1,0.2,0.2,0.3,0.4,0.3c0.1,0,0.2-0.1,0.3-0.1
				c0.6-0.5,1.1-1,1.5-1.6c0.9-1,1.4-1.5,1.5-1.5c0.2,0.2,0,1-0.4,2.5C85.8,8.3,85.8,8.7,86,9c0.1,0.2,0.3,0.3,0.4,0.5
				c0.3,0.1,0.4,0,0.5-0.2c-0.1-0.2-0.1-0.5-0.2-0.7c0-0.5,0.2-1.1,0.3-1.6C87.3,6.5,87.4,5.9,87.4,5.2z"/>
			<path id="Path_37" class="st0" d="M8.5,3.9C8.7,3.9,8.8,3.8,9,3.7c0.2-0.1,0.5-0.2,0.7-0.3C9.9,3.3,10,3.2,10,3
				C9.9,2.8,9.6,2.8,9,2.8c-0.2,0-0.5,0.1-0.7,0.2C8,3.1,7.8,3.2,7.8,3.3C7.9,3.7,8.1,3.9,8.5,3.9z"/>
			<path id="Path_38" class="st0" d="M11,4c0.1-0.1,0.3-0.3,0.4-0.4c0.2-0.2,0.3-0.4,0.5-0.6c0.1-0.2,0.1-0.3,0-0.5
				c-0.2-0.1-0.5,0-0.9,0.2c-0.2,0.1-0.4,0.3-0.5,0.5c-0.3,0.3-0.4,0.5-0.3,0.6C10.3,4,10.7,4.1,11,4z"/>
			<path id="Path_39" class="st0" d="M20.2,3.9c0.2-0.1,0.4-0.1,0.5-0.2c0.2-0.1,0.5-0.2,0.7-0.3c0.1-0.1,0.2-0.3,0.2-0.4
				c-0.1-0.2-0.4-0.2-0.9-0.2c-0.2,0-0.5,0.1-0.7,0.2c-0.4,0.1-0.5,0.3-0.5,0.4C19.6,3.7,19.8,3.9,20.2,3.9z"/>
			<path id="Path_40" class="st0" d="M22.7,4c0.1-0.1,0.3-0.3,0.4-0.4c0.2-0.2,0.3-0.4,0.5-0.6c0.1-0.2,0.1-0.3,0-0.5
				c-0.2-0.1-0.5,0-0.9,0.2c-0.2,0.1-0.4,0.3-0.5,0.5c-0.3,0.3-0.4,0.5-0.3,0.6C22,4,22.4,4.1,22.7,4z"/>
			<path id="Path_41" class="st0" d="M68.9,3.9c0.2-0.1,0.4-0.1,0.5-0.2c0.2-0.1,0.5-0.2,0.7-0.3c0.1-0.1,0.2-0.3,0.2-0.4
				c-0.1-0.2-0.4-0.2-0.9-0.2c-0.2,0-0.5,0.1-0.7,0.2c-0.4,0.1-0.5,0.3-0.5,0.4C68.2,3.7,68.5,3.9,68.9,3.9z"/>
			<path id="Path_42" class="st0" d="M71.3,2.7c-0.2,0.1-0.4,0.3-0.5,0.5c-0.3,0.3-0.4,0.5-0.3,0.6C70.7,4,71,4.1,71.4,4
				c0.1-0.1,0.3-0.3,0.4-0.4c0.2-0.2,0.3-0.4,0.5-0.6c0.1-0.2,0.1-0.3,0-0.5C72.1,2.3,71.8,2.4,71.3,2.7z"/>
			<path id="Path_43" class="st0" d="M78,3.9c0.2-0.1,0.4-0.1,0.5-0.2c0.2-0.1,0.5-0.2,0.7-0.3c0.1-0.1,0.2-0.3,0.2-0.4
				c-0.1-0.2-0.4-0.2-0.9-0.2c-0.2,0-0.5,0.1-0.7,0.2c-0.4,0.1-0.5,0.3-0.5,0.4C77.4,3.7,77.7,3.9,78,3.9z"/>
			<path id="Path_44" class="st0" d="M80.5,4c0.1-0.1,0.3-0.3,0.4-0.4c0.2-0.2,0.3-0.4,0.5-0.6c0.1-0.2,0.1-0.3,0-0.5
				c-0.2-0.1-0.5,0-0.9,0.2c-0.2,0.1-0.4,0.3-0.5,0.5c-0.3,0.3-0.4,0.5-0.3,0.6C79.8,4,80.2,4.1,80.5,4z"/>
			<path id="Path_45" class="st0" d="M88.5,8.7c0.1-0.1,0.3-0.3,0.4-0.4c0.2-0.2,0.3-0.4,0.5-0.6c0.1-0.2,0.1-0.3,0-0.5
				c-0.2-0.1-0.5,0-0.9,0.2c-0.2,0.1-0.4,0.3-0.5,0.5c-0.3,0.3-0.4,0.5-0.3,0.6C87.8,8.8,88.2,8.9,88.5,8.7z"/>
		</g>
	</g>
</g>
</svg>
