<svg xmlns="http://www.w3.org/2000/svg" xmlns:xlink="http://www.w3.org/1999/xlink" viewBox="0 0 155 60">
  <defs>
    <linearGradient id="a" x1="15.74" y1="-17389.92" x2="44.62" y2="-17389.92" gradientTransform="matrix(0.997, 0, 0, -0.997, 10.199, -17302.539)" gradientUnits="userSpaceOnUse">
      <stop offset="0" stop-color="#faa83c"/>
      <stop offset="0.291" stop-color="#fbae3b"/>
      <stop offset="0.666" stop-color="#fdbe38"/>
      <stop offset="1" stop-color="#ffd234"/>
    </linearGradient>
    <linearGradient id="b" x1="6.887" y1="-17384.277" x2="46.201" y2="-17384.277" xlink:href="#a"/>
    <linearGradient id="c" x1="-2.812" y1="-17374.906" x2="46.898" y2="-17374.906" xlink:href="#a"/>
    <linearGradient id="d" x1="6.878" y1="-17364.036" x2="47.142" y2="-17364.036" xlink:href="#a"/>
  </defs>
  <title>logo</title>
  <g>
    <g>
      <path d="M47.29,30.218s-4.5,9.131-15.053,10.367c-2.912.341-6.482,0.821-8.695,3.14L18.49,38.741s2.939-3.037,10.042-3.063c3.235-.012,6.9.692,10.12-0.049C42.87,34.658,44.839,33.333,47.29,30.218Z" style="fill: url(#a)"/>
      <path d="M48.868,26.608s-3,7.286-13.467,7.12c-4.559-.072-8.956-1.407-14.34.116A21.507,21.507,0,0,0,15.8,36.082l-6.13-6.048s6.522-4.939,19.239-2.617C38.988,29.26,44.6,31.034,48.868,26.608Z" style="fill: url(#b)"/>
      <path d="M49.564,23.79S47.93,27.508,41.542,27.3c-4.936-.164-9.484-2.157-13.7-2.828-4.482-.713-13.149-0.917-20.866,2.909L0,20.388s9.707-6.276,24.783-2.576C38.151,21.093,43.689,26.855,49.564,23.79Z" style="fill: url(#c)"/>
      <path d="M43.778,5.956A20.831,20.831,0,0,0,14.6,5.968a20.253,20.253,0,0,0-4.934,7.8c0.044,0,3.777-1.605,12.681-.023,6.788,1.207,17.956,6.874,21.8,8.069,3.722,1.158,5.513-.01,5.619-0.083A20.133,20.133,0,0,0,43.778,5.956Z" style="fill: url(#d)"/>
    </g>
    <g>
      <path d="M85.659,48.4a34.078,34.078,0,0,1-.546,6.794c-0.309,1.195-.9,1.8-1.8,1.8h-1.54l1.292,3H83.5c1.971,0,3.324-.656,4.108-2.109,0.783-1.476,1.211-4.123,1.33-7.942l0.094-3.326h5.034V60h3.4V43.6H85.73Z" style="fill: #333"/>
      <polygon points="100.858 46.623 106.106 46.623 106.106 60 109.525 60 109.525 46.623 114.796 46.623 114.796 43.601 100.858 43.601 100.858 46.623" style="fill: #333"/>
      <rect x="133.865" y="43.601" width="3.419" height="16.399" style="fill: #333"/>
      <path d="M129.4,50.559a6.833,6.833,0,0,0-4.7-1.546h-3.087V43.6h-3.419V60H124.7a6.938,6.938,0,0,0,4.7-1.523A5.389,5.389,0,0,0,129.4,50.559Zm-4.891,6.466h-2.9V51.871h2.9c1.994,0,3.182.937,3.182,2.6C127.692,56.088,126.5,57.025,124.511,57.025Z" style="fill: #333"/>
      <polygon points="151.604 43.601 151.604 49.739 144.101 49.739 144.101 43.601 140.682 43.601 140.682 60 144.101 60 144.101 52.808 151.604 52.808 151.604 60 155 60 155 43.601 151.604 43.601" style="fill: #333"/>
      <path d="M76.1,26.569a34.074,34.074,0,0,1-.546,6.794c-0.309,1.195-.9,1.8-1.8,1.8H72.288l1.293,3h0.36c1.971,0,3.324-.656,4.108-2.109,0.783-1.476,1.211-4.123,1.33-7.942l0.095-3.326h5.034V38.165h3.4v-16.4H76.173Z" style="fill: #333"/>
      <path d="M60.679,21.736L53.6,38.13h3.586l1.638-3.795h7.029l1.638,3.795h3.633L64.041,21.736H60.679Zm-0.788,9.811,2.446-5.693,2.422,5.693H59.891Z" style="fill: #333"/>
      <path d="M103.088,28.689a6.834,6.834,0,0,0-4.7-1.546H94.73V21.731H91.31v16.4h7.076a6.941,6.941,0,0,0,4.7-1.522,5,5,0,0,0,1.733-3.959A5,5,0,0,0,103.088,28.689ZM98.2,35.155H94.73V30H98.2c1.994,0,3.182.937,3.182,2.6C101.378,34.218,100.191,35.155,98.2,35.155Z" style="fill: #333"/>
      <path d="M108.605,23.09a4.43,4.43,0,0,0-1.543,3.49,4.592,4.592,0,0,0,3.467,4.545l-5.2,7h3.942l4.891-6.629h2.9V38.13h3.419v-16.4h-7.694A6.047,6.047,0,0,0,108.605,23.09Zm8.454,1.593v3.983h-4.085c-1.543,0-2.469-.7-2.469-1.991,0-1.242.926-1.991,2.469-1.991h4.085Z" style="fill: #333"/>
      <polygon points="134.799 27.869 127.296 27.869 127.296 21.731 123.876 21.731 123.876 38.13 127.296 38.13 127.296 30.938 134.799 30.938 134.799 38.13 138.195 38.13 138.195 21.731 134.799 21.731 134.799 27.869" style="fill: #333"/>
      <path d="M150.441,24.567A7.2,7.2,0,0,1,155,26V22.6a9.892,9.892,0,0,0-11.161,1.195,8.072,8.072,0,0,0-2.564,6.137h0a8.072,8.072,0,0,0,2.564,6.137A9.892,9.892,0,0,0,155,37.263v-3.4a7.2,7.2,0,0,1-4.559,1.429,5.678,5.678,0,0,1-4.061-1.5,5.435,5.435,0,0,1,0-7.73A5.678,5.678,0,0,1,150.441,24.567Z" style="fill: #333"/>
      <path d="M70.169,43.6L63.088,59.994h3.586L68.312,56.2h7.029l1.638,3.795h3.633L73.531,43.6H70.169Zm-0.788,9.811,2.446-5.693,2.422,5.693H69.381Z" style="fill: #333"/>
    </g>
  </g>
</svg>